<svg width="296" height="199" viewBox="0 0 296 199" fill="none" xmlns="http://www.w3.org/2000/svg">
<path d="M264.172 10.224C253.347 15.419 243.484 22.5776 233.538 29.5265C231.084 31.2445 229.269 34.0261 229.274 37.6463C229.284 68.5405 226.881 99.2761 224.984 130.063C223.89 147.821 224.222 165.661 221.747 183.363C220.735 190.614 219.589 196.724 211.955 197.844C210.979 197.87 210.002 197.89 209.026 197.916C206.392 195.277 205.973 192.102 206.198 188.154C207.808 159.438 206.745 130.661 207.502 101.925C208.023 82.1723 207.686 62.4608 206.781 42.7186C206.392 34.2358 203.513 29.5009 196.554 26.3716C190.127 23.4775 184.231 19.075 178.131 15.2656C177.144 14.6469 175.784 14.018 176.03 12.3664C176.27 10.7199 177.656 10.587 178.827 10.408C205.866 6.20496 233.007 3.89888 260.321 4.6403C261.671 4.67609 263.016 4.9829 264.366 5.16698C264.366 5.16698 264.489 5.14144 264.494 5.13633C264.663 6.45043 264.831 7.76963 265 9.08373C264.719 9.46211 264.443 9.8456 264.172 10.224Z" fill="#FF6699" stroke="white" stroke-width="0.511324" stroke-miterlimit="10"/>
<path d="M91.3954 191.555C91.3545 193.851 91.5845 195.558 89.9688 196.269C88.5524 196.893 87.7343 195.528 86.9725 194.612C84.1755 191.263 81.5269 187.766 78.7453 184.401C69.5978 173.326 60.3734 162.327 51.2769 151.201C48.2857 147.545 45.9592 147.816 42.7737 151.232C30.9519 163.907 19.2886 176.798 6.66915 188.492C5.30392 189.755 3.87724 192.327 1.98534 190.972C0.129239 189.642 1.35651 187.106 1.94964 185.163C8.423 163.948 13.0963 142.151 18.726 120.67C24.6982 97.8802 29.1519 74.6609 35.0117 51.8764C38.8773 36.8383 40.2682 21.4372 42.5897 6.16399C42.9016 4.1187 42.7327 1.14795 44.7985 0.841155C47.3807 0.457662 47.6261 3.67386 48.1016 5.7345C53.0768 27.2459 59.6423 48.2204 65.3231 69.4864C71.8629 93.9941 73.9696 119.56 80.7702 143.869C84.6153 157.608 86.2363 171.905 90.1428 185.582C90.7666 187.761 91.0886 190.046 91.3954 191.555ZM47.6005 81.9882C44.2923 87.5872 43.1622 93.1504 41.8174 98.6523C38.7495 111.185 39.6443 112.223 51.2003 109.641C53.4859 109.129 54.8101 107.851 54.3142 105.468C52.6728 97.6296 52.1513 89.3308 47.6005 81.9882Z" fill="#FF6699" stroke="white" stroke-width="0.511324" stroke-miterlimit="10"/>
<path d="M108.576 178.889C108.949 167.512 107.666 156.238 106.219 145.07C104.184 129.383 103.943 113.588 104.9 97.962C106.648 69.5018 104.414 41.1846 104.066 12.8113C104.061 12.2386 103.979 11.6608 103.974 11.0881C103.959 9.17575 103.713 7.0896 105.452 5.89821C107.262 4.65058 108.653 6.10272 110.105 7.09469C119.733 13.6754 128.737 21.2839 138.054 28.376C150.888 38.1372 163.86 47.6682 176.899 57.0766C182.708 61.2695 183.04 63.4017 178.377 68.8115C167.24 81.7377 156.236 94.8123 145.177 107.825C144.589 108.521 144.062 109.324 143.371 109.855C130.108 120.041 127.602 136.24 124.202 152.173C121.262 165.948 118.71 179.871 114.492 193.263C113.863 195.257 113.249 198.754 111.102 198.412C108.704 198.023 108.806 194.449 108.658 192.127C108.377 187.73 108.576 183.302 108.576 178.889ZM127.945 66.4747C127.894 66.4747 127.843 66.4799 127.792 66.4799C128.017 70.4937 128.149 74.5127 128.497 78.5164C128.773 81.707 130.021 82.5303 132.491 80.347C137.297 76.0979 142.185 71.9613 147.079 67.8349C149.691 65.6311 149.901 63.6062 146.823 61.837C141.684 58.8815 136.504 56.013 131.34 53.1138C128.998 51.7946 128.088 53.3644 127.986 55.5631C127.822 59.1884 127.945 62.8392 127.945 66.4747Z" fill="#FF6699" stroke="white" stroke-width="0.511324" stroke-miterlimit="10"/>
<path d="M279.882 179.211C278.625 175.926 275.65 174.482 273.695 171.922C271.614 169.193 271.413 166.879 274.133 164.619C274.98 163.913 275.759 163.098 276.579 162.346C281.864 157.499 288.433 157.526 293.636 162.373C294.642 163.312 295.626 164.592 294.802 165.831C291.381 171.002 287.777 176.045 282.597 179.17C281.896 179.594 280.821 179.234 279.919 179.238C279.919 179.243 279.882 179.211 279.882 179.211Z" fill="#FF6699" stroke="white" stroke-width="0.455566" stroke-miterlimit="10"/>
</svg>
